<!DOCTYPE svg PUBLIC "-//W3C//DTD SVG 1.1//EN" "http://www.w3.org/Graphics/SVG/1.1/DTD/svg11.dtd">
<!-- Uploaded to: SVG Repo, www.svgrepo.com, Transformed by: SVG Repo Mixer Tools -->
<svg fill="#ffff00" width="800px" height="800px" viewBox="0 0 24 24" xmlns="http://www.w3.org/2000/svg" stroke="#ffff00">
<g id="SVGRepo_bgCarrier" stroke-width="0"/>
<g id="SVGRepo_tracerCarrier" stroke-linecap="round" stroke-linejoin="round"/>
<g id="SVGRepo_iconCarrier">
<path d="M17.707,8.707l-.793.793.793.793a1,1,0,1,1-1.414,1.414l-.793-.793-.793.793a1,1,0,0,1-1.414-1.414l.793-.793-.793-.793a1,1,0,1,1,1.414-1.414l.793.793.793-.793a1,1,0,1,1,1.414,1.414Zm-10,3,.793-.793.793.793a1,1,0,0,0,1.414-1.414L9.914,9.5l.793-.793A1,1,0,1,0,9.293,7.293L8.5,8.086l-.793-.793A1,1,0,1,0,6.293,8.707l.793.793-.793.793a1,1,0,1,0,1.414,1.414ZM23,12A11,11,0,1,1,12,1,11.013,11.013,0,0,1,23,12Zm-2,0a9,9,0,1,0-9,9A9.011,9.011,0,0,0,21,12Zm-5,2H8a1,1,0,0,0,0,2h2v1a2,2,0,0,0,4,0V16h2a1,1,0,0,0,0-2Z"/>
</g>
</svg>